<?xml version="1.0" encoding="utf-8"?>
<!-- Generated by IcoMoon.io -->
<!DOCTYPE svg PUBLIC "-//W3C//DTD SVG 1.1//EN" "http://www.w3.org/Graphics/SVG/1.1/DTD/svg11.dtd">
<svg version="1.1" xmlns="http://www.w3.org/2000/svg" xmlns:xlink="http://www.w3.org/1999/xlink" width="16" height="16" viewBox="0 0 16 16">
<path fill="#000" d="M8 12.656q1.938 0 3.297-1.359t1.359-3.297-1.359-3.297-3.297-1.359-3.297 1.359-1.359 3.297 1.359 3.297 3.297 1.359zM13.969 7.344h1.375v1.313h-1.375q-0.219 2.094-1.719 3.594t-3.594 1.719v1.375h-1.313v-1.375q-2.094-0.219-3.594-1.719t-1.719-3.594h-1.375v-1.313h1.375q0.219-2.094 1.719-3.594t3.594-1.719v-1.375h1.313v1.375q2.094 0.219 3.594 1.719t1.719 3.594zM8 5.344q1.094 0 1.875 0.781t0.781 1.875-0.781 1.875-1.875 0.781-1.875-0.781-0.781-1.875 0.781-1.875 1.875-0.781z"></path>
</svg>
